# xmcd
#
# Track frame offsets: 
#        150
#        20123
#        36139
#        47155
#        64476
#        72986
#        88974
#        137628
#        153483
#        166652
#        188300
#        230967
#        255051
#        280152
#        302856
#
# Disc length: 4421 seconds
#
# Revision: 0
# Processed by: cddbd v1.5.2PL0 Copyright (c) Steve Scherf et al.
# Submitted via: ExactAudioCopy v0.95b3
#
DISCID=d011430f
DTITLE=Neil Young  - Rock'n Roll Cowboy A Life on the Road Disk 3
DYEAR=1900
DGENRE=
TTITLE0=If You Got Love
TTITLE1=Transformer Man
TTITLE2=My Boy
TTITLE3=Old Ways
TTITLE4=Kinda Fonda Wanda
TTITLE5=Gonna Rock Forever
TTITLE6=Touch The Night
TTITLE7=Amber Jean
TTITLE8=Helpless
TTITLE9=Down By The River
TTITLE10=Let Your Fingers Do The Talking
TTITLE11=Interstate
TTITLE12=Grey Riders
TTITLE13=Nothing Is Perfect
TTITLE14=Southern Pacific
EXTD=
EXTT0=
EXTT1=
EXTT2=
EXTT3=
EXTT4=
EXTT5=
EXTT6=
EXTT7=
EXTT8=
EXTT9=
EXTT10=
EXTT11=
EXTT12=
EXTT13=
EXTT14=
PLAYORDER=
